<?xml version="1.0" standalone="no"?>
<!DOCTYPE svg PUBLIC "-//W3C//DTD SVG 20010904//EN"
 "http://www.w3.org/TR/2001/REC-SVG-20010904/DTD/svg10.dtd">
<svg version="1.0" xmlns="http://www.w3.org/2000/svg"
 width="300.000000pt" height="300.000000pt" viewBox="0 0 300.000000 300.000000"
 preserveAspectRatio="xMidYMid meet">

<g transform="translate(0.000000,300.000000) scale(0.100000,-0.100000)"
fill="#000000" stroke="none">
<path d="M1203 2969 c-265 -56 -522 -188 -715 -369 -265 -248 -422 -553 -473
-922 l-6 -47 58 -3 58 -3 0 -125 0 -125 -58 -3 -58 -3 6 -47 c25 -176 71 -325
149 -487 217 -444 664 -761 1159 -820 l59 -8 -3 59 -3 58 125 0 124 0 3 -57
c3 -66 -3 -64 125 -42 318 56 574 191 807 424 143 143 213 241 293 411 77 162
118 304 140 478 l4 32 -59 0 -58 0 0 130 0 130 59 0 60 0 -6 38 c-88 611 -460
1066 -1028 1257 -97 33 -248 65 -306 65 -28 0 -29 -1 -29 -55 l0 -55 -125 0
-125 0 0 55 0 55 -42 -1 c-24 0 -84 -9 -135 -20z m583 -208 c251 -63 463 -179
629 -346 183 -182 316 -440 361 -695 22 -131 15 -389 -15 -510 -125 -504 -516
-879 -1014 -975 -637 -123 -1270 251 -1471 869 -45 135 -60 238 -60 401 1 294
83 540 261 777 193 255 484 434 803 492 122 22 395 15 506 -13z"/>
<path d="M1255 2740 c-721 -152 -1158 -861 -969 -1573 32 -121 125 -311 204
-416 186 -250 451 -419 762 -488 64 -14 123 -18 263 -17 168 1 188 3 298 32
481 126 839 510 933 1000 23 117 22 348 -1 457 -110 526 -510 921 -1022 1010
-122 21 -354 19 -468 -5z m803 -559 c70 -38 120 -92 154 -167 23 -49 23 -52
23 -514 0 -457 0 -466 -22 -512 -30 -66 -105 -143 -172 -175 l-56 -28 -465 0
-465 0 -67 33 c-81 39 -139 102 -168 179 -20 54 -21 71 -18 522 l3 466 28 51
c40 72 104 131 173 159 l59 25 465 -3 465 -2 63 -34z"/>
<path d="M1088 2131 c-54 -11 -128 -60 -160 -106 -47 -68 -50 -107 -46 -555 3
-406 3 -416 25 -456 28 -53 105 -121 152 -134 21 -6 209 -10 467 -10 l432 0
53 28 c60 31 113 93 129 150 15 55 14 863 -2 914 -16 53 -87 131 -140 154 -39
17 -77 19 -458 21 -228 0 -432 -2 -452 -6z m941 -127 c28 -35 26 -69 -4 -99
-69 -70 -170 30 -103 102 30 33 80 31 107 -3z m-428 -44 c121 -23 257 -116
316 -218 85 -144 84 -346 -3 -483 -90 -143 -228 -219 -397 -219 -233 0 -419
158 -459 388 -40 232 111 463 341 524 77 20 128 22 202 8z"/>
<path d="M1409 1852 c-105 -35 -185 -107 -231 -209 -18 -38 -22 -67 -23 -138
0 -118 31 -191 116 -269 178 -165 451 -119 568 94 35 63 36 68 36 170 0 94 -3
111 -28 161 -34 69 -109 142 -182 175 -75 35 -180 41 -256 16z"/>
</g>
</svg>
